<?xml version="1.0" standalone="no"?>
<!DOCTYPE svg PUBLIC "-//W3C//DTD SVG 20010904//EN"
 "http://www.w3.org/TR/2001/REC-SVG-20010904/DTD/svg10.dtd">
<svg version="1.0" xmlns="http://www.w3.org/2000/svg"
 width="128.000000pt" height="128.000000pt" viewBox="0 0 128.000000 128.000000"
 preserveAspectRatio="xMidYMid meet">
<metadata>
Created by potrace 1.11, written by Peter Selinger 2001-2013
</metadata>
<g transform="translate(0.000000,128.000000) scale(0.100000,-0.100000)"
fill="#000000" stroke="none">
<path d="M645 1163 c-93 -34 -163 -105 -190 -195 -11 -36 -16 -43 -36 -40
-159 19 -229 1 -308 -78 -99 -99 -118 -242 -49 -357 63 -105 156 -153 299
-153 l76 0 6 -34 c25 -157 191 -248 333 -182 78 36 144 128 144 199 0 12 18
16 93 19 102 4 147 20 198 72 81 82 89 209 20 309 -29 41 -127 97 -170 97 -25
0 -26 2 -25 57 3 114 -69 229 -173 275 -65 29 -155 33 -218 11z"/>
</g>
</svg>
